<?xml version="1.0" standalone="no"?>
<!DOCTYPE svg PUBLIC "-//W3C//DTD SVG 20010904//EN"
 "http://www.w3.org/TR/2001/REC-SVG-20010904/DTD/svg10.dtd">
<svg version="1.0" xmlns="http://www.w3.org/2000/svg"
 width="1840.000000pt" height="1840.000000pt" viewBox="0 0 1840.000000 1840.000000"
 preserveAspectRatio="xMidYMid meet">

 <rect width="100%" height="100%" fill="white"/>
<g transform="translate(0.000000,1840.000000) scale(0.100000,-0.100000)"
fill="#000000" stroke="none">
<path d="M8190 17833 c-396 -4 -763 -24 -980 -53 -41 -6 -145 -17 -230 -25
-469 -44 -694 -69 -770 -85 -25 -5 -116 -17 -202 -25 -170 -16 -298 -42 -393
-79 -33 -13 -87 -27 -119 -31 -77 -9 -258 -54 -421 -103 -71 -22 -150 -43
-175 -47 -25 -4 -88 -23 -140 -42 -52 -19 -158 -50 -236 -68 -215 -51 -612
-190 -654 -229 -34 -32 -53 -40 -143 -65 -81 -22 -188 -75 -290 -144 -32 -21
-96 -51 -141 -66 -97 -33 -188 -81 -272 -146 -168 -129 -282 -226 -311 -263
-85 -111 -55 -323 61 -430 50 -46 55 -48 318 -103 139 -29 210 -50 257 -73 36
-18 98 -45 136 -60 132 -51 234 -143 208 -185 -5 -9 -52 -37 -105 -62 -64 -32
-116 -66 -159 -106 -35 -33 -90 -78 -121 -101 -31 -23 -71 -60 -90 -83 -18
-22 -44 -51 -57 -63 -13 -11 -34 -32 -45 -45 -12 -14 -48 -55 -81 -92 -129
-143 -244 -281 -316 -379 -19 -26 -57 -69 -83 -95 -34 -33 -62 -75 -96 -148
-26 -56 -66 -122 -88 -147 -21 -25 -50 -63 -64 -85 -14 -22 -53 -72 -86 -112
-33 -40 -73 -94 -88 -120 -15 -26 -42 -71 -61 -98 -18 -28 -47 -83 -63 -123
-16 -40 -55 -118 -87 -175 -49 -88 -98 -179 -161 -302 -9 -16 -32 -55 -53 -85
-59 -87 -132 -257 -164 -381 -9 -34 -27 -77 -40 -98 -13 -20 -40 -83 -58 -141
-19 -58 -53 -150 -75 -205 -22 -56 -46 -130 -53 -165 -7 -36 -25 -87 -40 -115
-15 -27 -30 -70 -34 -95 -12 -79 -44 -194 -69 -252 -35 -78 -53 -155 -66 -278
-6 -58 -18 -132 -25 -165 -22 -97 -33 -195 -50 -450 -9 -132 -20 -262 -25
-290 -5 -27 -15 -88 -24 -135 -25 -138 -46 -368 -58 -636 l-11 -252 31 -66
c36 -77 143 -230 175 -250 12 -8 56 -22 98 -31 63 -13 84 -14 120 -5 76 21
136 58 181 112 47 57 69 79 167 163 76 65 120 74 162 29 24 -25 24 -27 30
-309 4 -156 9 -288 12 -292 3 -5 11 -59 17 -119 6 -60 17 -134 25 -164 8 -30
24 -140 35 -245 24 -217 55 -430 76 -525 18 -78 102 -340 114 -355 4 -5 20
-51 34 -102 14 -50 46 -135 72 -190 25 -54 61 -141 79 -193 19 -52 56 -144 83
-205 27 -60 55 -135 62 -165 15 -68 114 -277 170 -360 23 -34 56 -91 72 -128
17 -37 46 -87 63 -112 18 -25 60 -99 95 -165 34 -66 72 -131 84 -145 12 -14
35 -50 50 -80 36 -69 88 -137 163 -215 78 -81 162 -195 207 -280 50 -96 99
-160 149 -195 58 -42 175 -187 187 -232 19 -67 1 -127 -75 -252 -13 -22 -26
-56 -30 -75 -7 -36 -49 -141 -87 -216 -50 -98 -122 -301 -152 -430 -19 -79
-47 -167 -64 -201 -17 -34 -47 -115 -66 -181 -19 -65 -48 -149 -65 -185 -16
-36 -36 -101 -45 -144 -9 -43 -27 -95 -39 -114 -30 -46 -43 -80 -62 -164 -9
-39 -31 -105 -51 -147 -28 -63 -39 -109 -58 -237 -13 -87 -34 -192 -46 -233
-13 -41 -35 -143 -50 -228 -22 -120 -33 -158 -48 -170 -30 -24 -39 -49 -46
-136 -14 -164 -36 -279 -65 -340 -36 -77 -38 -83 -56 -259 -17 -157 -43 -283
-69 -334 -16 -31 -39 -231 -53 -464 l-6 -98 317 0 316 0 0 86 c0 47 4 118 10
157 5 40 15 108 21 152 6 44 24 135 40 202 37 155 55 250 64 338 7 68 28 144
58 216 22 50 45 183 57 328 8 92 15 132 30 156 10 17 26 71 34 121 8 49 24
118 36 154 11 36 30 94 41 130 12 36 34 98 50 138 16 41 34 106 40 145 6 40
14 77 19 82 11 14 87 222 100 275 7 25 21 62 32 83 10 21 34 107 53 190 19 84
44 179 55 212 12 33 29 95 39 137 12 49 34 103 60 146 26 44 45 89 50 123 5
30 23 83 39 119 17 36 48 115 71 175 33 87 49 118 81 148 21 20 48 37 59 37
12 0 51 -27 87 -60 37 -34 97 -78 133 -99 91 -54 191 -135 263 -215 33 -36 74
-74 91 -82 17 -9 52 -33 78 -54 26 -20 91 -54 143 -74 83 -33 102 -44 138 -87
48 -57 147 -127 235 -165 32 -14 72 -38 88 -54 17 -15 52 -40 79 -55 27 -14
61 -39 75 -54 18 -19 47 -33 96 -45 39 -10 93 -28 120 -40 28 -13 82 -31 120
-41 45 -12 88 -31 120 -56 30 -22 79 -46 124 -59 40 -12 91 -35 114 -51 22
-16 47 -29 56 -30 9 0 62 -15 118 -32 67 -22 108 -41 120 -56 16 -20 51 -30
232 -66 117 -24 254 -49 304 -55 66 -8 117 -22 182 -49 67 -29 124 -44 223
-60 73 -11 148 -28 168 -36 20 -8 48 -15 63 -15 14 0 49 -7 76 -16 116 -36
523 -87 795 -99 200 -9 980 -6 1019 4 20 6 104 15 186 20 177 13 328 36 404
62 30 11 68 19 86 19 17 0 65 9 106 19 41 10 97 22 125 25 61 8 192 46 255 74
57 26 116 42 154 42 17 0 55 7 85 15 30 8 120 29 200 45 111 24 166 41 235 74
50 25 108 50 130 56 22 7 73 30 114 52 41 21 104 46 139 54 72 17 123 39 135
60 12 21 72 49 184 84 109 35 147 34 156 -1 16 -59 -39 -387 -83 -499 -13 -33
-22 -96 -30 -206 -6 -88 -15 -190 -20 -229 -18 -135 -21 -171 -25 -270 -3 -55
-10 -116 -16 -135 -16 -52 -25 -764 -10 -920 6 -69 18 -199 27 -290 21 -228
33 -362 34 -382 0 -17 22 -18 316 -18 l316 0 -6 128 c-7 121 -25 304 -46 457
-20 144 -23 240 -22 615 2 319 5 390 17 417 8 17 17 58 20 90 29 342 60 634
81 753 14 80 27 156 30 170 2 14 10 89 18 168 13 124 19 150 45 195 21 37 35
85 49 168 29 161 83 292 154 367 62 67 82 84 125 105 17 9 59 50 92 91 53 64
80 86 216 171 100 63 165 110 182 133 15 21 44 55 64 78 20 23 40 50 43 60 3
10 27 33 52 49 25 17 57 47 70 67 13 20 34 40 46 44 13 3 37 18 54 33 17 14
44 33 61 42 28 15 136 138 198 226 17 22 42 49 57 60 15 10 37 36 49 58 13 23
45 58 77 80 91 66 129 110 176 202 25 49 63 110 86 138 23 27 49 63 57 79 8
16 40 52 70 79 30 28 61 64 70 81 8 17 28 45 44 61 15 17 37 51 49 78 12 26
34 57 51 69 18 14 33 37 40 62 6 23 25 64 44 91 18 28 36 64 40 82 3 18 29 65
56 105 27 40 61 103 74 139 14 36 41 84 59 105 41 48 52 69 60 115 4 21 13 42
21 49 30 25 56 81 66 139 5 33 24 99 43 148 19 48 39 115 46 148 7 35 22 71
35 85 20 22 75 177 75 211 0 8 15 33 34 57 37 45 60 119 97 302 21 107 45 159
124 270 18 25 47 76 64 113 38 86 116 203 148 224 13 9 31 29 39 44 8 15 46
70 84 121 47 62 80 120 101 173 17 44 38 88 46 97 8 9 27 56 43 105 15 48 41
110 58 136 22 35 33 67 37 112 7 63 16 82 66 147 20 25 30 56 43 130 9 55 32
138 55 195 45 115 46 119 66 292 15 137 31 205 59 259 22 43 33 175 46 537 6
171 15 393 21 495 11 219 4 591 -17 815 -19 204 -31 273 -54 310 -11 17 -33
71 -51 120 -17 50 -48 124 -69 165 -21 41 -52 120 -69 175 -16 55 -43 118 -59
140 -16 22 -37 62 -46 90 -9 27 -28 66 -42 86 -14 21 -32 69 -40 109 -19 89
-38 150 -98 304 -38 97 -46 131 -46 183 0 89 19 106 180 161 69 24 143 52 165
63 95 46 205 122 281 195 106 102 132 122 240 184 109 64 116 69 169 150 23
36 62 89 86 119 24 30 55 68 69 86 14 18 57 71 95 119 103 126 137 188 169
307 15 57 37 127 48 154 16 41 21 87 28 260 l9 210 -35 65 c-61 111 -62 112
-264 130 -119 10 -393 48 -510 70 -30 6 -171 13 -313 17 l-258 6 -44 -43 c-55
-54 -117 -65 -183 -31 -23 12 -42 27 -43 34 -1 6 -3 75 -4 152 -5 229 -63 549
-129 706 -8 19 -35 138 -60 264 -50 249 -86 381 -118 433 -15 24 -45 45 -116
80 -128 62 -181 64 -294 10 -130 -62 -192 -109 -216 -166 -12 -27 -38 -69 -58
-93 -20 -24 -47 -66 -61 -94 -43 -89 -88 -164 -120 -197 -16 -18 -43 -57 -59
-86 -15 -29 -43 -69 -61 -88 -18 -19 -49 -63 -69 -97 -20 -34 -71 -98 -113
-143 -76 -80 -96 -116 -146 -258 -10 -26 -30 -63 -46 -81 -16 -18 -34 -48 -41
-67 -20 -62 -44 -78 -112 -78 -34 1 -73 6 -88 13 -15 7 -73 56 -128 110 -59
57 -118 106 -143 116 -23 10 -53 31 -67 46 -14 15 -50 44 -80 63 -30 19 -73
50 -95 67 -22 18 -92 58 -155 90 -63 31 -129 68 -147 81 -17 13 -35 24 -40 24
-12 0 -148 85 -208 131 -27 20 -70 46 -95 57 -25 11 -88 40 -140 65 -52 25
-122 53 -155 62 -33 10 -85 33 -116 51 -31 19 -87 45 -124 60 -38 14 -87 36
-109 49 -23 13 -68 31 -100 40 -38 11 -69 28 -85 46 -28 30 -77 51 -178 74
-34 8 -95 31 -135 51 -95 48 -248 97 -399 128 -76 16 -144 37 -180 56 -31 16
-113 45 -181 64 -67 19 -181 55 -253 80 -71 24 -167 52 -213 60 -46 9 -91 20
-102 26 -44 23 -260 71 -412 90 -90 12 -181 25 -203 30 -22 5 -128 18 -235 30
-107 11 -278 32 -380 46 -340 47 -445 57 -690 69 -139 7 -598 11 -880 8z
m1211 -639 c3 -2 66 -8 140 -14 126 -10 239 -34 239 -50 0 -9 144 -27 276 -35
150 -9 281 -32 312 -55 27 -20 39 -22 272 -50 130 -16 256 -45 275 -63 17 -17
111 -40 228 -56 88 -12 113 -22 122 -50 4 -15 18 -21 53 -26 148 -19 305 -50
357 -71 33 -14 98 -38 145 -53 47 -16 102 -39 122 -50 20 -12 70 -33 112 -45
41 -13 89 -35 106 -50 29 -24 113 -56 149 -56 9 0 36 -11 61 -24 122 -63 152
-76 197 -87 26 -6 62 -20 78 -29 17 -10 49 -21 72 -25 23 -4 58 -19 77 -34 19
-16 57 -34 83 -41 26 -7 63 -25 81 -39 46 -36 97 -66 162 -97 30 -14 75 -38
100 -54 25 -16 72 -39 104 -51 33 -12 78 -39 100 -59 23 -21 52 -41 66 -45 51
-15 227 -111 329 -179 141 -94 178 -122 233 -181 26 -29 80 -69 125 -93 43
-24 98 -58 122 -75 67 -49 176 -164 231 -243 131 -191 313 -271 487 -214 87
29 138 57 152 84 46 94 91 202 91 220 0 53 31 215 50 266 12 30 34 75 50 100
18 29 31 66 36 105 4 33 15 78 24 100 20 47 90 155 134 206 17 21 64 84 104
143 40 58 82 108 94 111 25 9 61 -24 87 -79 38 -78 52 -365 31 -606 -6 -63
-15 -131 -20 -150 -6 -19 -17 -82 -25 -140 -23 -172 9 -325 74 -354 14 -6 46
-23 71 -38 96 -56 254 -57 373 -3 56 26 308 85 362 85 18 0 49 14 79 35 36 26
60 35 88 35 22 0 53 7 70 16 57 29 363 19 426 -15 28 -15 42 -42 42 -80 0 -47
-48 -154 -95 -210 -22 -28 -47 -68 -54 -88 -23 -64 -67 -119 -108 -136 -21 -8
-54 -32 -73 -52 -19 -20 -51 -45 -71 -56 -20 -10 -53 -33 -72 -52 -20 -18 -54
-40 -77 -47 -26 -8 -53 -29 -75 -56 -27 -33 -62 -56 -148 -98 -100 -49 -124
-57 -227 -71 -171 -23 -441 -76 -473 -92 -44 -22 -76 -103 -93 -238 l-15 -114
26 -83 c45 -139 65 -191 89 -238 13 -25 34 -79 46 -120 12 -42 33 -86 46 -101
24 -25 83 -158 84 -188 0 -28 93 -216 130 -266 39 -52 44 -64 81 -225 33 -141
52 -191 98 -251 22 -30 41 -58 41 -63 0 -4 17 -45 39 -90 21 -46 41 -105 45
-132 4 -27 14 -75 22 -107 47 -184 65 -580 40 -872 -9 -104 -21 -289 -26 -410
-14 -350 -36 -537 -71 -626 -10 -26 -21 -75 -24 -110 -3 -35 -12 -86 -20 -114
-7 -27 -21 -90 -30 -138 -10 -51 -28 -103 -41 -122 -13 -20 -37 -94 -59 -187
-48 -198 -43 -184 -69 -216 -13 -15 -27 -41 -30 -59 -4 -18 -15 -42 -25 -55
-9 -13 -28 -48 -40 -78 -13 -30 -39 -74 -57 -99 -19 -24 -39 -61 -45 -83 -5
-21 -20 -48 -32 -59 -50 -45 -63 -56 -87 -71 -24 -15 -39 -41 -95 -158 -52
-110 -72 -137 -162 -228 l-91 -93 -17 -97 c-32 -191 -47 -243 -82 -285 -18
-21 -33 -42 -33 -45 -1 -34 -25 -160 -51 -271 -46 -198 -59 -240 -79 -259 -27
-26 -47 -72 -54 -127 -4 -28 -20 -73 -36 -100 -16 -28 -42 -77 -58 -110 -16
-33 -48 -85 -71 -115 -22 -30 -41 -61 -41 -69 0 -8 -32 -73 -72 -145 -98 -178
-118 -218 -118 -238 0 -10 -15 -35 -33 -55 -19 -21 -50 -68 -70 -104 -21 -36
-46 -74 -56 -83 -11 -10 -23 -31 -26 -46 -3 -15 -25 -47 -48 -69 -104 -102
-117 -117 -117 -125 0 -4 -11 -21 -25 -37 -13 -16 -28 -45 -34 -64 -5 -18 -22
-51 -39 -72 -16 -21 -35 -55 -42 -76 -9 -30 -21 -43 -58 -61 -46 -23 -93 -67
-124 -114 -8 -12 -46 -55 -84 -95 -38 -40 -85 -102 -104 -137 -19 -36 -53 -83
-75 -105 -40 -39 -161 -140 -220 -182 -52 -37 -151 -136 -185 -185 -36 -51
-86 -91 -175 -136 -104 -53 -238 -156 -274 -210 -12 -18 -47 -49 -79 -69 -31
-20 -76 -53 -99 -74 -22 -21 -61 -47 -85 -59 -23 -12 -52 -31 -63 -41 -11 -10
-40 -25 -64 -34 -25 -8 -68 -38 -97 -65 -29 -28 -58 -50 -65 -50 -12 0 -54
-24 -165 -96 -29 -19 -82 -49 -119 -69 -38 -19 -87 -50 -109 -69 -49 -39 -117
-66 -248 -96 -79 -18 -108 -30 -155 -64 -32 -24 -94 -55 -138 -71 -44 -15 -98
-38 -120 -51 -22 -12 -80 -34 -130 -49 -56 -16 -99 -35 -116 -51 -20 -19 -47
-29 -110 -40 -84 -15 -143 -32 -274 -78 -46 -16 -131 -32 -250 -46 -99 -12
-205 -28 -235 -36 -65 -16 -278 -39 -515 -54 -93 -6 -206 -16 -250 -22 -106
-14 -651 -14 -740 1 -38 6 -151 15 -250 21 -222 12 -427 33 -593 60 -70 11
-201 29 -292 39 -126 15 -178 25 -220 45 -30 13 -93 32 -140 41 -146 27 -174
36 -220 64 -25 16 -76 36 -115 46 -104 27 -365 133 -407 166 -42 33 -109 61
-188 78 -88 20 -216 70 -271 107 -28 19 -63 37 -78 40 -14 4 -49 22 -78 40
-28 19 -86 52 -130 75 -43 23 -98 61 -123 85 -26 26 -97 70 -170 108 -227 118
-216 111 -346 248 -17 18 -48 44 -68 58 -21 14 -70 50 -109 81 -40 30 -107 75
-150 99 -42 24 -85 56 -95 71 -54 84 -90 129 -112 142 -14 9 -65 55 -115 103
-49 49 -108 100 -131 115 -39 25 -60 49 -107 115 -67 97 -96 133 -135 169 -24
22 -69 73 -99 113 -33 45 -68 79 -91 90 -39 19 -89 89 -146 207 -19 39 -49 84
-66 100 -18 17 -43 48 -56 71 -13 22 -42 50 -64 63 -42 23 -95 94 -130 174
-11 25 -31 59 -44 74 -29 35 -49 74 -70 140 -10 28 -30 68 -46 88 -16 20 -32
46 -36 58 -4 12 -30 63 -59 112 -69 120 -70 122 -100 185 -14 30 -43 73 -64
95 -27 29 -44 63 -60 114 -12 41 -34 90 -47 111 -27 40 -49 103 -64 183 -5 26
-21 71 -34 100 -14 28 -30 81 -35 117 -15 89 -37 158 -65 200 -30 46 -43 88
-56 188 -11 79 -18 110 -39 157 -26 57 -60 178 -66 235 -15 139 -35 249 -65
350 -42 145 -50 263 -55 845 -5 620 -1 600 -127 729 -15 17 -28 34 -28 39 0 4
-27 35 -59 68 -33 33 -63 70 -67 82 -12 40 -115 127 -201 169 l-83 40 -114
-12 c-120 -14 -187 -10 -213 11 -13 11 -14 28 -9 99 4 47 11 141 15 210 5 69
19 161 31 205 11 44 25 98 30 120 5 22 14 54 20 70 14 36 33 122 49 225 13 83
21 106 61 195 15 33 33 90 39 127 13 76 35 131 79 201 23 36 33 69 42 135 21
153 38 206 136 419 13 29 27 65 30 80 12 46 45 116 69 145 33 39 109 185 125
238 7 25 26 59 41 75 25 28 100 188 128 277 7 21 32 64 56 97 23 32 53 86 65
120 13 34 31 66 42 72 28 15 56 -6 68 -51 5 -22 15 -58 20 -79 6 -22 27 -60
48 -84 20 -25 53 -71 72 -102 19 -31 75 -98 124 -148 49 -51 105 -112 124
-137 80 -102 716 -736 792 -789 30 -22 84 -69 120 -106 36 -37 83 -78 104 -92
22 -14 51 -39 65 -57 48 -59 116 -117 181 -156 36 -21 85 -59 110 -85 25 -26
79 -72 120 -103 41 -31 108 -90 150 -132 66 -67 91 -84 214 -146 119 -59 152
-81 228 -152 50 -45 102 -90 116 -100 15 -9 46 -31 70 -49 24 -18 48 -33 54
-33 6 0 31 -15 57 -34 25 -19 65 -39 88 -45 23 -6 61 -26 85 -44 54 -41 103
-70 147 -87 19 -8 68 -33 110 -57 41 -24 83 -43 91 -43 9 0 32 -12 51 -26 44
-34 211 -112 269 -126 25 -6 70 -22 100 -35 88 -39 185 -50 264 -30 77 19 149
58 174 95 10 15 28 51 40 81 44 107 20 369 -41 459 -24 35 -42 93 -66 210 -6
29 -25 74 -43 99 -24 35 -40 83 -69 201 -21 85 -51 182 -68 216 -22 45 -33 87
-41 161 -7 55 -20 123 -30 150 -24 68 -41 183 -32 224 4 19 16 39 25 45 15 9
24 5 50 -25 35 -39 93 -86 179 -145 115 -80 228 -179 286 -253 49 -62 158
-144 253 -191 66 -33 100 -59 159 -120 85 -88 206 -185 259 -207 20 -9 55 -33
78 -54 23 -21 54 -41 70 -45 15 -4 46 -19 68 -34 22 -15 60 -38 85 -50 25 -13
54 -33 65 -45 12 -12 54 -43 95 -70 114 -74 179 -123 240 -181 40 -38 75 -60
125 -79 114 -43 164 -67 182 -88 10 -10 40 -30 66 -43 26 -14 58 -36 70 -51
27 -31 207 -152 265 -177 23 -11 47 -26 54 -33 6 -8 39 -28 72 -45 33 -17 71
-39 85 -49 14 -10 48 -23 75 -29 28 -6 72 -26 98 -45 26 -19 70 -45 97 -58 65
-32 169 -95 208 -126 52 -43 118 -80 175 -100 29 -10 76 -30 104 -44 73 -37
158 -50 277 -44 124 6 223 30 258 64 32 30 49 15 25 -22 -10 -15 -22 -76 -32
-157 -14 -122 -14 -138 2 -208 9 -41 16 -76 15 -78 -1 -1 12 -28 28 -60 15
-31 34 -74 40 -94 20 -62 89 -128 192 -185 86 -47 104 -53 209 -68 168 -25
200 -22 286 20 41 19 103 56 139 81 56 40 71 56 101 118 20 39 51 87 70 106
49 51 94 183 94 275 0 91 -18 156 -67 241 -22 38 -51 94 -66 124 -44 91 -81
127 -180 176 -169 83 -223 89 -407 49 -151 -34 -165 -40 -230 -100 -118 -110
-152 -121 -169 -57 -6 20 -11 60 -11 87 0 55 -13 86 -69 160 -38 50 -54 84
-66 140 -6 28 -48 130 -81 199 -8 16 -14 33 -14 38 0 5 -13 29 -30 53 -16 24
-30 47 -30 51 0 4 -16 39 -36 78 -20 39 -43 96 -50 127 -7 31 -24 81 -38 110
-13 30 -32 83 -41 119 -9 36 -30 87 -46 114 -17 26 -38 80 -48 120 -10 39 -29
91 -42 115 -13 24 -30 55 -38 70 -8 14 -30 71 -48 126 -18 54 -45 117 -59 139
-26 39 -74 196 -74 243 0 24 2 25 56 20 31 -3 63 -12 74 -22 10 -9 51 -30 92
-46 78 -32 111 -57 134 -102 8 -15 46 -47 83 -72 38 -24 72 -48 76 -54 3 -7
34 -25 68 -42 34 -18 81 -49 104 -70 23 -21 68 -51 100 -68 32 -16 81 -48 108
-70 28 -22 80 -58 116 -80 36 -22 72 -47 79 -56 7 -8 43 -31 81 -51 46 -24 84
-55 119 -95 60 -69 101 -94 258 -161 64 -27 126 -57 138 -66 11 -9 57 -46 100
-81 43 -35 103 -74 131 -86 29 -13 70 -37 90 -54 52 -41 202 -121 293 -156 41
-16 95 -42 119 -57 24 -16 82 -46 130 -68 47 -21 106 -56 131 -77 25 -22 83
-57 130 -78 47 -22 108 -54 135 -71 28 -18 64 -36 80 -40 17 -4 46 -15 66 -25
40 -20 225 -69 259 -69 22 0 223 -77 290 -111 34 -16 58 -24 225 -69 121 -33
332 -53 570 -53 210 0 223 1 277 24 83 35 182 114 209 169 30 60 37 179 15
274 -16 65 -79 210 -118 268 -10 15 -29 55 -42 91 -14 35 -36 88 -50 118 -13
30 -35 81 -47 114 -13 33 -33 76 -46 95 -13 19 -35 52 -49 73 -15 23 -31 70
-40 114 -8 41 -26 103 -40 137 -14 33 -36 89 -48 123 -13 34 -39 80 -59 102
-20 22 -41 59 -47 83 -22 85 -32 109 -52 121 -25 15 -54 71 -64 121 -4 23 -24
60 -49 91 -54 66 -58 74 -84 168 -12 43 -30 95 -40 115 -10 20 -24 61 -32 90
-9 37 -23 62 -47 83 -19 18 -43 52 -54 77 -11 24 -37 63 -57 86 -21 23 -46 55
-56 73 -15 26 -36 39 -108 67 -116 47 -148 46 -251 -4 -66 -33 -92 -52 -132
-100 -88 -106 -87 -140 6 -315 29 -55 77 -147 105 -205 29 -58 65 -116 80
-130 33 -30 57 -77 78 -150 29 -101 134 -318 166 -346 22 -19 37 -46 55 -108
14 -46 35 -91 47 -102 30 -27 65 -101 74 -154 5 -32 17 -53 40 -75 42 -40 51
-58 60 -130 3 -33 18 -87 32 -120 26 -63 53 -151 53 -173 0 -8 -12 -26 -28
-41 l-27 -28 -90 17 c-50 10 -125 23 -169 29 -114 18 -186 39 -226 65 -19 13
-46 26 -60 31 -14 4 -47 17 -75 30 -27 13 -75 28 -106 35 -35 7 -81 27 -120
52 -35 23 -100 57 -144 76 -44 18 -89 42 -100 53 -12 10 -47 28 -80 39 -32 11
-66 26 -74 34 -9 8 -32 17 -51 21 -40 8 -82 28 -125 60 -16 12 -65 37 -108 55
-43 18 -104 51 -135 73 -31 22 -75 48 -98 57 -23 10 -64 39 -93 64 -28 25 -55
46 -60 46 -5 0 -38 20 -74 44 -35 25 -109 65 -164 89 -77 34 -109 54 -143 91
-26 28 -72 62 -110 81 -36 18 -85 48 -108 67 -22 18 -61 47 -84 65 -24 18 -72
54 -108 80 -77 58 -123 87 -170 109 -57 27 -259 174 -335 245 -112 104 -208
166 -308 199 -22 7 -79 47 -129 89 -105 90 -162 135 -219 176 -22 17 -71 52
-108 78 -36 27 -80 54 -97 61 -27 12 -60 38 -171 137 -42 38 -144 99 -213 128
-45 20 -72 23 -165 24 -102 0 -115 -2 -175 -30 -42 -19 -79 -45 -102 -72 -37
-44 -78 -149 -78 -202 0 -45 39 -227 55 -259 7 -14 23 -63 35 -108 11 -46 27
-97 34 -115 8 -17 33 -93 56 -167 48 -154 53 -169 109 -302 23 -54 50 -142 62
-195 11 -54 34 -129 50 -167 16 -37 36 -96 45 -130 8 -33 26 -77 39 -96 27
-39 55 -112 55 -142 0 -24 25 -73 51 -99 24 -24 58 -96 59 -124 1 -11 14 -45
30 -75 32 -59 41 -139 18 -158 -17 -13 -115 12 -148 38 -14 12 -45 33 -69 48
-24 15 -65 42 -90 59 -122 86 -190 127 -236 143 -74 26 -207 95 -229 119 -33
37 -189 148 -231 165 -22 10 -53 30 -70 45 -16 16 -46 37 -65 46 -19 10 -66
45 -104 78 -39 33 -101 74 -141 92 -128 59 -231 135 -321 237 -35 40 -76 79
-91 86 -16 8 -37 23 -48 32 -11 10 -65 41 -120 69 -92 46 -107 59 -185 147
-47 53 -97 103 -111 113 -44 27 -112 84 -154 128 -22 23 -68 55 -101 72 -34
16 -72 44 -85 61 -13 17 -68 77 -123 133 -54 56 -106 111 -115 123 -9 11 -36
36 -61 55 -25 19 -60 49 -79 67 -18 18 -37 32 -41 32 -10 0 -72 85 -96 131 -9
19 -51 72 -94 119 -42 47 -90 105 -107 130 -17 25 -40 54 -50 65 -37 40 -61
81 -83 145 -29 83 -83 187 -115 222 -34 37 -61 43 -190 42 -121 0 -153 -10
-206 -65 -45 -46 -60 -84 -69 -176 -12 -112 6 -642 25 -758 8 -49 24 -153 34
-230 25 -176 33 -214 71 -308 16 -41 36 -104 44 -139 24 -109 63 -243 81 -277
9 -19 32 -90 50 -160 18 -69 53 -182 78 -249 25 -68 53 -158 63 -199 l18 -76
-25 -19 c-32 -27 -97 -20 -142 15 -32 24 -78 52 -142 87 -58 31 -90 55 -130
95 -22 23 -66 58 -97 79 -32 21 -58 42 -58 46 0 7 -142 90 -224 131 -16 7 -46
38 -68 66 -23 31 -56 62 -81 74 -23 12 -58 36 -77 55 -94 89 -207 177 -254
198 -33 15 -64 38 -82 62 -34 45 -86 93 -157 146 -28 21 -72 60 -97 86 -25 26
-62 62 -82 80 -21 18 -45 44 -54 57 -9 14 -41 42 -71 62 -30 20 -71 56 -91 80
-20 24 -53 53 -72 64 -19 11 -46 35 -59 52 -13 18 -41 44 -62 59 -20 15 -55
51 -77 80 -22 29 -88 100 -147 158 -59 58 -138 141 -176 185 -38 44 -75 85
-81 92 -7 6 -33 37 -58 68 -25 32 -80 94 -123 140 -65 69 -91 89 -160 121 -76
36 -88 39 -172 39 l-90 0 -3 39 c-5 56 22 111 92 186 143 154 217 239 260 297
25 34 54 67 65 73 11 6 39 37 61 69 22 33 65 81 97 108 31 26 88 78 127 114
39 36 97 82 128 102 31 20 64 50 73 66 17 35 65 72 115 91 51 20 119 59 166
96 22 18 72 48 110 67 38 18 92 48 119 65 125 78 158 94 212 104 121 22 165
44 241 121 102 103 123 174 83 289 -20 58 -68 132 -100 155 -31 21 -138 50
-229 62 -68 9 -94 18 -150 51 -37 23 -78 44 -92 47 -14 3 -59 23 -100 44 -41
20 -109 49 -150 63 -41 15 -86 35 -100 45 -14 10 -45 28 -69 40 -29 15 -47 33
-57 56 -30 72 -13 103 70 131 25 9 51 24 56 34 6 12 42 29 96 45 48 15 103 37
123 49 20 13 61 32 91 44 123 46 284 114 305 128 13 8 51 19 86 25 35 5 82 19
104 29 51 24 109 37 210 45 121 10 196 25 225 44 33 24 145 48 250 55 70 5 98
12 155 40 91 44 191 66 301 66 107 0 208 14 289 39 167 51 345 79 515 81 131
1 258 18 330 45 47 17 94 26 170 30 58 3 121 8 140 12 88 15 1985 22 2011 7z"/>
<path d="M4106 10779 c-107 -16 -183 -60 -292 -169 -84 -85 -105 -114 -156
-211 l-58 -112 0 -106 c0 -147 19 -211 103 -339 55 -84 77 -109 124 -139 32
-20 75 -51 96 -68 61 -52 127 -65 307 -59 154 4 154 4 229 41 87 43 198 142
239 212 14 25 38 62 53 81 33 42 59 171 59 296 0 91 -27 196 -64 254 -13 19
-29 53 -37 74 -17 47 -108 133 -176 165 -26 12 -59 29 -73 37 -14 8 -38 21
-55 28 -39 17 -223 26 -299 15z"/>
<path d="M4104 7837 c-64 -17 -93 -38 -143 -106 -61 -82 -67 -170 -17 -277 24
-52 76 -118 106 -134 21 -11 115 -27 239 -40 51 -6 113 -17 136 -25 23 -7 105
-19 181 -24 77 -6 155 -15 174 -20 19 -5 107 -15 195 -20 88 -6 239 -18 335
-26 304 -25 571 -44 705 -50 337 -14 485 -29 645 -65 83 -19 182 -28 540 -50
100 -7 226 -21 295 -35 190 -38 300 -53 445 -60 209 -10 478 -34 550 -50 36
-7 97 -16 135 -20 39 -4 113 -13 165 -20 52 -8 145 -18 205 -24 264 -26 334
-34 395 -46 109 -22 540 -61 825 -75 322 -15 501 -29 605 -45 52 -8 162 -19
243 -24 144 -10 151 -9 211 13 74 28 182 82 190 95 4 5 11 31 16 58 24 113 24
113 -19 198 -22 44 -55 95 -74 113 -33 32 -42 35 -143 47 -60 8 -167 18 -239
24 -71 5 -215 17 -320 26 -104 9 -251 20 -325 26 -214 16 -326 29 -460 54
-125 23 -200 31 -580 61 -113 8 -279 28 -370 44 -91 16 -208 31 -260 35 -52 3
-122 10 -155 15 -33 5 -143 16 -245 25 -102 9 -216 23 -255 31 -38 9 -115 19
-170 24 -55 5 -197 18 -315 29 -352 34 -436 41 -640 56 -722 53 -1005 79
-1145 105 -55 10 -163 24 -240 30 -77 7 -207 20 -290 31 -82 10 -199 24 -260
29 -60 6 -132 17 -160 25 -27 8 -89 14 -136 14 -76 0 -166 10 -249 27 -62 13
-277 13 -326 1z"/>
</g>
</svg>
